<svg width="23.500000" height="23.500000" viewBox="0 0 23.5 23.5" fill="none" xmlns="http://www.w3.org/2000/svg" xmlns:xlink="http://www.w3.org/1999/xlink">
	<desc>
			Created with Pixso.
	</desc>
	<defs/>
	<path id="Vector" d="M18.7 0.89C18.85 0.85 19 0.89 19.1 0.94C19.35 1.1 19.5 1.35 19.54 1.69L20.04 4.39L20.9 4.39L20.4 1.55C20.29 0.94 20 0.5 19.54 0.19C19.2 0 18.79 -0.06 18.45 0.05L4.54 4.35L7.14 4.39L18.7 0.89Z" fill="#F04B36" fill-opacity="1.000000" fill-rule="nonzero"/>
	<path id="Vector" d="M22.2 4.4L20.95 4.4L20.1 4.4L7.2 4.4L4.55 4.35C4.2 4.45 3.85 4.7 3.65 5.1C3.5 5.35 3.45 5.6 3.45 5.9L3.45 12.8C4 12.65 4.6 12.55 5.2 12.55C8.65 12.55 11.45 15.25 11.45 18.54C11.45 19.1 11.4 19.6 11.25 20.1L22.2 20.1C22.9 20.1 23.5 19.45 23.5 18.65L23.5 15.4L17.4 15.4C17.15 15.4 17 15.2 17 15L17 9.65C17 9.4 17.2 9.25 17.4 9.25L23.5 9.25L23.5 5.9C23.5 5.1 22.9 4.4 22.2 4.4Z" fill="#F7A93B" fill-opacity="1.000000" fill-rule="nonzero"/>
	<path id="Vector" d="M17.79 14.55L23.5 14.55L23.5 10.05L17.79 10.05L17.79 14.55ZM20.4 11.45C20.8 11.45 21.15 11.85 21.15 12.3C21.15 12.8 20.8 13.15 20.4 13.15C20 13.15 19.65 12.75 19.65 12.3C19.65 11.85 20 11.45 20.4 11.45Z" fill="#E77528" fill-opacity="1.000000" fill-rule="nonzero"/>
	<path id="Vector" d="M5.25 13.5C2.35 13.5 0 15.75 0 18.5C0 21.25 2.35 23.5 5.25 23.5C7.39 23.5 9.39 22.2 10.14 20.25C10.35 19.7 10.5 19.1 10.5 18.5C10.5 15.75 8.14 13.5 5.25 13.5ZM7.25 19L5.75 19L5.75 20.5C5.75 20.75 5.54 21 5.25 21C5 21 4.75 20.8 4.75 20.5L4.75 19L3.25 19C3 19 2.75 18.79 2.75 18.5C2.75 18.25 2.95 18 3.25 18L4.75 18L4.75 16.5C4.75 16.25 4.95 16 5.25 16C5.5 16 5.75 16.2 5.75 16.5L5.75 18L7.25 18C7.5 18 7.75 18.2 7.75 18.5C7.75 18.79 7.54 19 7.25 19Z" fill="#0DB89A" fill-opacity="1.000000" fill-rule="nonzero"/>
</svg>
